<svg width="13" height="13" viewBox="0 0 13 13" fill="none" xmlns="http://www.w3.org/2000/svg">
<path d="M6.5 0C2.9185 0 0 2.9185 0 6.5C0 10.0815 2.9185 13 6.5 13C10.0815 13 13 10.0815 13 6.5C13 2.9185 10.0815 0 6.5 0ZM9.1 6.9875H6.9875V9.1C6.9875 9.3665 6.7665 9.5875 6.5 9.5875C6.2335 9.5875 6.0125 9.3665 6.0125 9.1V6.9875H3.9C3.6335 6.9875 3.4125 6.7665 3.4125 6.5C3.4125 6.2335 3.6335 6.0125 3.9 6.0125H6.0125V3.9C6.0125 3.6335 6.2335 3.4125 6.5 3.4125C6.7665 3.4125 6.9875 3.6335 6.9875 3.9V6.0125H9.1C9.3665 6.0125 9.5875 6.2335 9.5875 6.5C9.5875 6.7665 9.3665 6.9875 9.1 6.9875Z" fill="#FA813C"/>
</svg>
