<svg width="14" height="10" viewBox="0 0 14 10" fill="none" xmlns="http://www.w3.org/2000/svg">
<path d="M13.125 0H0.625C0.45924 0 0.300268 0.0658481 0.183058 0.183058C0.065848 0.300269 0 0.45924 0 0.625V8.75C0 8.91576 0.065848 9.07473 0.183058 9.19194C0.300268 9.30915 0.45924 9.375 0.625 9.375H13.125C13.2908 9.375 13.4497 9.30915 13.5669 9.19194C13.6842 9.07473 13.75 8.91576 13.75 8.75V0.625C13.75 0.45924 13.6842 0.300269 13.5669 0.183058C13.4497 0.0658481 13.2908 0 13.125 0ZM6.25 4.0625H5V3.75H3.75V5.625H5V5.3125H6.25V5.9375C6.25 6.18614 6.15123 6.4246 5.97541 6.60041C5.7996 6.77623 5.56114 6.875 5.3125 6.875H3.4375C3.18886 6.875 2.9504 6.77623 2.77459 6.60041C2.59877 6.4246 2.5 6.18614 2.5 5.9375V3.4375C2.49563 3.31321 2.5169 3.18935 2.56247 3.07363C2.60804 2.95792 2.67694 2.85282 2.76488 2.76488C2.85282 2.67694 2.95792 2.60804 3.07363 2.56247C3.18935 2.5169 3.31321 2.49563 3.4375 2.5H5.3125C5.43679 2.49563 5.56065 2.5169 5.67637 2.56247C5.79208 2.60804 5.89718 2.67694 5.98512 2.76488C6.07306 2.85282 6.14196 2.95792 6.18753 3.07363C6.2331 3.18935 6.25437 3.31321 6.25 3.4375V4.0625ZM11.25 4.0625H10V3.75H8.75V5.625H10V5.3125H11.25V5.9375C11.25 6.18614 11.1512 6.4246 10.9754 6.60041C10.7996 6.77623 10.5611 6.875 10.3125 6.875H8.4375C8.18886 6.875 7.9504 6.77623 7.77459 6.60041C7.59877 6.4246 7.5 6.18614 7.5 5.9375V3.4375C7.49563 3.31321 7.5169 3.18935 7.56247 3.07363C7.60804 2.95792 7.67694 2.85282 7.76488 2.76488C7.85282 2.67694 7.95792 2.60804 8.07363 2.56247C8.18935 2.5169 8.31321 2.49563 8.4375 2.5H10.3125C10.4368 2.49563 10.5606 2.5169 10.6764 2.56247C10.7921 2.60804 10.8972 2.67694 10.9851 2.76488C11.0731 2.85282 11.142 2.95792 11.1875 3.07363C11.2331 3.18935 11.2544 3.31321 11.25 3.4375V4.0625Z" fill="white"/>
</svg>
