<svg width="15" height="15" viewBox="0 0 15 15" fill="none" xmlns="http://www.w3.org/2000/svg">
<path d="M7.5 0C3.36448 0 0 3.36448 0 7.50006C0 11.6356 3.36448 15.0001 7.5 15.0001C11.6355 15.0001 15 11.6356 15 7.50006C15 3.36448 11.6355 0 7.5 0ZM7.5 1.95661C10.5567 1.95661 13.0435 4.44331 13.0435 7.50006C13.0435 10.5568 10.5567 13.0435 7.5 13.0435C4.44332 13.0435 1.95649 10.5568 1.95649 7.50006C1.95649 4.44331 4.44335 1.95661 7.5 1.95661Z" fill="white"/>
<path d="M4.52387 7.79673L7.18886 9.81864C7.25709 9.87038 7.32579 9.8978 7.38749 9.8978C7.45042 9.8978 7.50532 9.86927 7.54206 9.8175C7.57719 9.76804 7.595 9.7006 7.595 9.61699V8.84284C7.595 8.63917 7.76071 8.47346 7.96435 8.47346H10.1627C10.4177 8.47346 10.6252 8.2659 10.6252 8.01092V7.00565C10.6252 6.75068 10.4177 6.54311 10.1627 6.54311H7.96435C7.76071 6.54311 7.595 6.37741 7.595 6.17373V5.39956C7.595 5.19257 7.4878 5.11877 7.38752 5.11877C7.32582 5.11877 7.25712 5.1462 7.18888 5.19794L4.5239 7.21984C4.42382 7.29572 4.36871 7.39817 4.36871 7.50839C4.36868 7.61843 4.42376 7.72088 4.52387 7.79673Z" fill="white"/>
</svg>
