<svg width="13" height="12" viewBox="0 0 13 12" fill="none" xmlns="http://www.w3.org/2000/svg">
<path d="M0.9375 10.2375L2.60063 8.90625H10.3125C10.5611 8.90625 10.7996 8.80748 10.9754 8.63166C11.1512 8.45585 11.25 8.21739 11.25 7.96875V1.875C11.25 1.62636 11.1512 1.3879 10.9754 1.21209C10.7996 1.03627 10.5611 0.9375 10.3125 0.9375H1.875C1.62636 0.9375 1.3879 1.03627 1.21209 1.21209C1.03627 1.3879 0.9375 1.62636 0.9375 1.875V10.2375ZM2.92969 9.84375L0.76125 11.5781C0.692325 11.6332 0.609269 11.6676 0.521627 11.6776C0.433985 11.6875 0.345315 11.6726 0.265805 11.6344C0.186296 11.5962 0.119175 11.5363 0.0721549 11.4617C0.0251353 11.3871 0.000125562 11.3007 0 11.2125V1.875C0 1.37772 0.197544 0.900805 0.549175 0.549175C0.900805 0.197544 1.37772 0 1.875 0H10.3125C10.8098 0 11.2867 0.197544 11.6383 0.549175C11.99 0.900805 12.1875 1.37772 12.1875 1.875V7.96875C12.1875 8.46603 11.99 8.94294 11.6383 9.29457C11.2867 9.64621 10.8098 9.84375 10.3125 9.84375H2.92969Z" fill="white"/>
<path d="M3.75 5.625H8.4375C8.75 5.625 8.90625 5.78125 8.90625 6.09375C8.90625 6.40625 8.75 6.5625 8.4375 6.5625H3.75C3.4375 6.5625 3.28125 6.40625 3.28125 6.09375C3.28125 5.78125 3.4375 5.625 3.75 5.625ZM3.75 2.8125H8.4375C8.75 2.8125 8.90625 2.96875 8.90625 3.28125C8.90625 3.59375 8.75 3.75 8.4375 3.75H3.75C3.4375 3.75 3.28125 3.59375 3.28125 3.28125C3.28125 2.96875 3.4375 2.8125 3.75 2.8125Z" fill="white"/>
</svg>
