<svg width="10" height="10" viewBox="0 0 10 10" fill="none" xmlns="http://www.w3.org/2000/svg">
<path d="M4.21875 3.47815C4.17116 3.45067 4.11715 3.43623 4.06219 3.43628C4.00723 3.43633 3.95326 3.45088 3.90571 3.47846C3.85817 3.50603 3.81874 3.54566 3.7914 3.59334C3.76406 3.64102 3.74978 3.69506 3.75 3.75002V6.25002C3.74978 6.30498 3.76406 6.35903 3.7914 6.40671C3.81874 6.45439 3.85817 6.49401 3.90571 6.52159C3.95326 6.54916 4.00723 6.56371 4.06219 6.56376C4.11715 6.56382 4.17116 6.54938 4.21875 6.5219L6.40625 5.2719C6.45435 5.24464 6.49435 5.20512 6.52218 5.15735C6.55001 5.10959 6.56467 5.0553 6.56467 5.00002C6.56467 4.94474 6.55001 4.89045 6.52218 4.84269C6.49435 4.79493 6.45435 4.7554 6.40625 4.72815L4.21875 3.47815ZM4.375 5.7094V4.28752L5.625 5.00002L4.375 5.7094Z" fill="white"/>
<path d="M8.4375 0.3125H1.5625C1.23098 0.3125 0.913037 0.444196 0.678617 0.678617C0.444196 0.913037 0.3125 1.23098 0.3125 1.5625V8.4375C0.3125 8.76902 0.444196 9.08696 0.678617 9.32138C0.913037 9.5558 1.23098 9.6875 1.5625 9.6875H8.4375C8.76902 9.6875 9.08696 9.5558 9.32138 9.32138C9.5558 9.08696 9.6875 8.76902 9.6875 8.4375V7.1875H0.9375V2.8125H9.6875V1.5625C9.6875 1.23098 9.5558 0.913037 9.32138 0.678617C9.08696 0.444196 8.76902 0.3125 8.4375 0.3125ZM7.5 7.8125H9.0625V8.4375C9.0625 8.60326 8.99665 8.76223 8.87944 8.87944C8.76223 8.99665 8.60326 9.0625 8.4375 9.0625H7.5V7.8125ZM5.3125 7.8125H6.875V9.0625H5.3125V7.8125ZM3.125 7.8125H4.6875V9.0625H3.125V7.8125ZM2.5 7.8125V9.0625H1.5625C1.39674 9.0625 1.23777 8.99665 1.12056 8.87944C1.00335 8.76223 0.9375 8.60326 0.9375 8.4375V7.8125H2.5ZM2.5 2.1875H0.9375V1.5625C0.9375 1.39674 1.00335 1.23777 1.12056 1.12056C1.23777 1.00335 1.39674 0.9375 1.5625 0.9375H2.5V2.1875ZM4.6875 2.1875H3.125V0.9375H4.6875V2.1875ZM6.875 2.1875H5.3125V0.9375H6.875V2.1875ZM9.0625 2.1875H7.5V0.9375H8.4375C8.60326 0.9375 8.76223 1.00335 8.87944 1.12056C8.99665 1.23777 9.0625 1.39674 9.0625 1.5625V2.1875Z" fill="white"/>
<path d="M9.0625 3.75C9.0625 3.83288 9.09542 3.91237 9.15403 3.97097C9.21263 4.02958 9.29212 4.0625 9.375 4.0625C9.45788 4.0625 9.53737 4.02958 9.59597 3.97097C9.65458 3.91237 9.6875 3.83288 9.6875 3.75C9.6875 3.66712 9.65458 3.58763 9.59597 3.52903C9.53737 3.47042 9.45788 3.4375 9.375 3.4375C9.29212 3.4375 9.21263 3.47042 9.15403 3.52903C9.09542 3.58763 9.0625 3.66712 9.0625 3.75Z" fill="white"/>
<path d="M9.375 4.6875C9.29212 4.6875 9.21263 4.72042 9.15403 4.77903C9.09542 4.83763 9.0625 4.91712 9.0625 5V6.25C9.0625 6.33288 9.09542 6.41237 9.15403 6.47097C9.21263 6.52958 9.29212 6.5625 9.375 6.5625C9.45788 6.5625 9.53737 6.52958 9.59597 6.47097C9.65458 6.41237 9.6875 6.33288 9.6875 6.25V5C9.6875 4.91712 9.65458 4.83763 9.59597 4.77903C9.53737 4.72042 9.45788 4.6875 9.375 4.6875Z" fill="white"/>
</svg>
