<svg width="13" height="13" viewBox="0 0 13 13" fill="none" xmlns="http://www.w3.org/2000/svg">
<g clip-path="url(#clip0_107_146)">
<path d="M6.5 0C2.9104 0 0 2.9104 0 6.5C0 10.0896 2.9104 13 6.5 13C10.0896 13 13 10.0896 13 6.5C13 2.9104 10.0896 0 6.5 0ZM8.91368 6.57358L5.25743 8.75578C5.23126 8.77167 5.19792 8.77246 5.17095 8.75657C5.14478 8.74148 5.12812 8.71335 5.12812 8.68199V6.49977V4.31755C5.12812 4.28662 5.14478 4.25806 5.17095 4.24295C5.19792 4.22749 5.23126 4.22828 5.25743 4.24374L8.91368 6.42637C8.93986 6.44125 8.95535 6.46999 8.95535 6.49975C8.95535 6.53014 8.93989 6.55832 8.91368 6.57358Z" fill="#FA813C"/>
</g>
<defs>
<clipPath id="clip0_107_146">
<rect width="13" height="13" fill="white"/>
</clipPath>
</defs>
</svg>
