<svg width="15" height="15" viewBox="0 0 15 15" fill="none" xmlns="http://www.w3.org/2000/svg">
<path d="M4.83443 8.46559H7.03271C7.23641 8.46559 7.40211 8.6313 7.40211 8.83497V9.60912C7.40211 9.8161 7.50931 9.88993 7.60959 9.88993C7.67129 9.88993 7.74 9.86251 7.80823 9.81077L10.4732 7.78886C10.5733 7.71301 10.6284 7.61053 10.6284 7.50046C10.6284 7.39024 10.5733 7.28779 10.4732 7.21191L7.80823 5.19C7.74 5.13826 7.67129 5.11084 7.60959 5.11084C7.50928 5.11084 7.40211 5.18464 7.40211 5.39162V6.1658C7.40211 6.36947 7.23641 6.53518 7.03271 6.53518H4.83443C4.57934 6.53518 4.37183 6.74275 4.37183 6.99772V8.00299C4.37183 8.25805 4.57931 8.46559 4.83443 8.46559Z" fill="white"/>
<path d="M7.5 0C3.36448 0 0 3.36448 0 7.50006C0 11.6356 3.36448 15.0001 7.5 15.0001C11.6355 15.0001 15 11.6356 15 7.50006C15 3.36448 11.6355 0 7.5 0ZM7.5 1.95661C10.5567 1.95661 13.0435 4.44332 13.0435 7.50006C13.0435 10.5568 10.5567 13.0435 7.5 13.0435C4.44332 13.0435 1.95649 10.5568 1.95649 7.50006C1.95649 4.44332 4.44335 1.95661 7.5 1.95661Z" fill="white"/>
</svg>
